# xmcd
#
# Track frame offsets: 
#        150
#        22746
#        35623
#        48035
#        58930
#        71135
#        82798
#        96425
#        111046
#        123953
#        136300
#        150989
#        161731
#        174049
#        178444
#        191194
#        203972
#        216240
#        230421
#        242951
#        256408
#        267688
#        280778
#        292543
#        304198
#
# Disc length: 4244 seconds
#
# Revision: 1
# Processed by: cddbd v1.5.2PL0 Copyright (c) Steve Scherf et al.
# Submitted via: ExactAudioCopy v1.0b1
#
DISCID=67109219
DTITLE=Various Artist - 100 Blues Classics - CD 3
DYEAR=2017
DGENRE=Blues
TTITLE0=B.B. King - Everyday I Have The Blues
TTITLE1=Elmore James - Dust My Broom
TTITLE2=Bo Diddley - I'm A Man
TTITLE3=Howlin' Wolf - The Red Rooster
TTITLE4=Little Junior Parker - In The Dark
TTITLE5=Robert Johnson - Hellhound On My Trail
TTITLE6=John Lee Hooker - Catfish
TTITLE7=Memphis Slim - Nervous (& Willie Dixon)
TTITLE8=Muddy Waters - Louisiana Blues
TTITLE9=Howlin' Wolf - Spoonful
TTITLE10=Big Joe Williams - Good Morning Little Schoolgirl
TTITLE11=Jimmy Reed - Take Out Some Insurance
TTITLE12=Little Walter - Juke
TTITLE13=Brownie McGhee - Blood River Blues (Brownie's Blues)
TTITLE14=Lowell Fulson - Lonely Hours
TTITLE15=Robert Johnson - Come On In My Kitchen
TTITLE16=Elmore James - Standing At The Crossroads
TTITLE17=Tampa Red - Don't You Lie To Me
TTITLE18=Jimmy McCracklin - The Walk
TTITLE19=Buddy Guy - Stone Crazy
TTITLE20=Earl Gaines - Can't Keep From Cryin'
TTITLE21=Lightnin’ Hopkins - Penitentiary Blues
TTITLE22=Bobby Blue Band - I Smell Trouble
TTITLE23=Junior Wells - Little By Little
TTITLE24=Muddy Waters - Rollin' Stone
EXTD=
EXTT0=
EXTT1=
EXTT2=
EXTT3=
EXTT4=
EXTT5=
EXTT6=
EXTT7=
EXTT8=
EXTT9=
EXTT10=
EXTT11=
EXTT12=
EXTT13=
EXTT14=
EXTT15=
EXTT16=
EXTT17=
EXTT18=
EXTT19=
EXTT20=
EXTT21=
EXTT22=
EXTT23=
EXTT24=
PLAYORDER=
